<svg width="20" height="20" viewBox="0 0 20 20" fill="none" xmlns="http://www.w3.org/2000/svg">
<path fill-rule="evenodd" clip-rule="evenodd" d="M15.366 11.4669C15.1531 11.2696 14.9713 10.9995 14.7948 10.7035C15.0648 9.92446 14.9558 9.03119 14.4208 8.31969C13.5691 7.18752 11.9591 6.95901 10.827 7.81073C10.5257 8.03405 10.3024 8.31969 10.1362 8.6261C10.0272 8.44433 9.89215 8.27295 9.74154 8.11714C9.82463 7.97173 9.90773 7.82631 10.0116 7.6757C12.1046 4.67389 8.00174 2.22778 8.00174 2.22778C8.00174 2.22778 15.7867 3.51056 15.4024 8.1483C15.1791 10.8437 17.1682 12.22 17.1682 12.22C17.1682 12.22 16.6644 12.677 15.366 11.4669ZM7.43046 7.43161C6.63067 7.59261 5.92436 8.13272 5.58159 8.9429C5.0259 10.2465 5.63353 11.7577 6.93708 12.3082C7.26427 12.4485 7.60704 12.5108 7.93942 12.5108C7.81997 12.6822 7.72129 12.8691 7.64339 13.0665C7.50317 13.0613 7.36814 13.0665 7.22272 13.0509C3.57693 12.7393 3.50941 17.5121 3.50941 17.5121C3.50941 17.5121 0.730923 10.1322 4.93761 8.1483C7.38372 6.99536 7.58107 4.5856 7.58107 4.5856C7.58107 4.5856 8.22506 4.79334 7.82516 6.52276C7.75765 6.81359 7.60704 7.12 7.43046 7.43161ZM11.3463 8.88577C11.9955 8.39759 12.9147 8.52742 13.4081 9.1766C13.6107 9.44666 13.7041 9.76866 13.6989 10.0855C13.8288 10.6308 14.1456 11.5448 14.9142 12.0642C13.6626 11.8149 13.2627 11.3994 13.1432 11.2124C13.1329 11.2176 13.1277 11.228 13.1173 11.2384C12.4681 11.7266 11.5489 11.5967 11.0555 10.9476C10.5725 10.2932 10.7023 9.37396 11.3463 8.88577ZM11.419 13.3469C11.5177 14.1519 10.9412 14.8842 10.1362 14.9829C9.79867 15.0244 9.47667 14.9413 9.20661 14.7803C8.67169 14.6193 7.72129 14.4376 6.88515 14.8426C7.72649 13.8819 8.28738 13.7468 8.5055 13.7364C8.5055 13.7261 8.50031 13.7157 8.49511 13.7001C8.39644 12.8951 8.97291 12.1628 9.77789 12.0642C10.5881 11.9707 11.3203 12.542 11.419 13.3469ZM9.49225 10.3451C9.17546 11.093 8.31334 11.4409 7.56549 11.1241C6.81763 10.8073 6.46967 9.94004 6.78647 9.19218C6.9215 8.88058 7.15001 8.64168 7.42527 8.48588C7.83555 8.10156 8.46395 7.36929 8.53147 6.44486C8.94175 7.65493 8.78075 8.20543 8.67688 8.40278C8.68727 8.40798 8.69766 8.40798 8.71324 8.41317C9.46109 8.72997 9.80905 9.59727 9.49225 10.3451ZM6.87995 15.4399C7.16559 15.3516 7.50836 15.336 7.86671 15.3308C8.38086 16.1462 9.32606 16.6396 10.344 16.5149C11.7514 16.3436 12.7537 15.0608 12.5824 13.6585C12.5252 13.1756 12.3279 12.7445 12.0474 12.3913C12.2552 12.4173 12.4681 12.4277 12.681 12.4017C12.733 12.5004 12.7901 12.5887 12.842 12.6926C14.3949 16.006 18.5652 13.6793 18.5652 13.6793C18.5652 13.6793 13.5587 19.7764 9.73635 17.1278C7.51355 15.5853 5.32712 16.6188 5.32712 16.6188C5.32712 16.6188 5.18689 15.9592 6.87995 15.4399Z" fill="#B2BDCE"/>
</svg>
