<svg width="16" height="14" viewBox="0 0 16 14" fill="none" xmlns="http://www.w3.org/2000/svg">
<path fill-rule="evenodd" clip-rule="evenodd" d="M13.8551 5.50036C12.1472 7.20823 11.3435 7.20823 9.63565 5.50036C7.92778 3.79249 7.92778 2.98878 9.63565 1.28091C11.3435 -0.426969 12.1472 -0.426969 13.8551 1.28091C15.563 2.98878 15.563 3.79249 13.8551 5.50036ZM6.89254 3.39063C6.89254 5.80175 6.28976 6.40453 3.87864 6.40453C1.46753 6.40453 0.864746 5.80175 0.864746 3.39063C0.864746 0.979516 1.46753 0.376737 3.87864 0.376737C6.28976 0.376737 6.89254 0.979516 6.89254 3.39063ZM6.89254 10.9864C6.89254 13.3975 6.28976 14.0003 3.87864 14.0003C1.46753 14.0003 0.864746 13.3975 0.864746 10.9864C0.864746 8.57528 1.46753 7.9725 3.87864 7.9725C6.28976 7.9725 6.89254 8.57528 6.89254 10.9864ZM11.7446 14.0003C14.1557 14.0003 14.7585 13.3975 14.7585 10.9864C14.7585 8.57528 14.1557 7.9725 11.7446 7.9725C9.33348 7.9725 8.7307 8.57528 8.7307 10.9864C8.7307 13.3975 9.33348 14.0003 11.7446 14.0003Z" fill="white"/>
</svg>
