<svg width="20" height="20" viewBox="0 0 20 20" fill="none" xmlns="http://www.w3.org/2000/svg">
<path fill-rule="evenodd" clip-rule="evenodd" d="M17.2832 15.9974C16.0372 17.3421 14.1993 17.5654 14.1993 17.5654C15.1701 16.2934 13.4412 15.9195 13.3737 16.7399C13.1453 16.0493 10.8972 14.5385 10.8972 14.5385C12.3198 13.6092 14.4744 13.713 14.4744 13.713C12.6521 14.2945 13.3997 15.4471 14.4069 15.3484C15.4142 15.2498 16.4525 14.1076 15.8503 13.1626C15.0559 11.9166 13.0986 12.062 13.0986 12.062C12.0239 7.71634 14.9261 7.0414 14.9261 7.0414C11.9719 12.4617 17.0029 10.6757 17.0029 10.6757C16.5875 13.3859 19.0848 14.0972 17.2832 15.9974ZM11.8369 6.25742C11.515 10.0579 12.8234 12.8927 12.8234 12.8927C11.5099 12.9498 9.79653 13.7182 9.79653 13.7182C9.79653 13.7182 8.0832 12.9498 6.76965 12.8927C6.76965 12.8927 8.07801 10.0579 7.75611 6.25742H7.699C7.58997 5.36441 6.86311 3.09036 6.52563 2.16101H7.41864L7.62632 3.50571H8.97102V2.16101H9.79653H10.622V3.50571H11.9667L12.1744 2.16101H13.0674C12.73 3.09036 12.0083 5.36441 11.8941 6.25742H11.8369ZM9.66673 7.2958L8.62835 6.25742L7.84957 12.0983L9.66673 12.6175V7.2958ZM4.01794 13.1678C3.73239 14.1595 4.35023 14.6423 5.11863 14.8189C5.63263 14.9383 6.04279 14.4399 6.21931 13.7182C6.21931 13.7182 11.0374 13.7545 12.8234 17.8457C12.8234 17.8457 6.84753 12.8563 5.58071 16.9112C5.58071 16.9112 0.689936 17.3733 2.42922 11.7608C6.68139 9.78791 4.12697 7.51386 4.02314 7.56578C4.02314 7.56578 6.44775 7.19196 6.76965 9.86579C6.76965 9.86579 6.72292 13.552 4.01794 13.1678ZM7.04482 16.7451C7.04482 16.7451 9.01774 17.1189 9.53174 17.2591C10.0457 17.3992 11.5929 17.8561 11.5929 17.8561L4.84346 17.8457C4.84346 17.8457 6.81638 17.6952 7.04482 16.7451Z" fill="#B2BDCE"/>
</svg>
