<?xml version="1.0" standalone="no"?><!DOCTYPE svg PUBLIC "-//W3C//DTD SVG 1.1//EN" "http://www.w3.org/Graphics/SVG/1.1/DTD/svg11.dtd"><svg t="1684750401118" class="icon" viewBox="0 0 1024 1024" version="1.1" xmlns="http://www.w3.org/2000/svg" p-id="2929" xmlns:xlink="http://www.w3.org/1999/xlink" width="200" height="200"><path d="M498.619733 196.061867a34.133333 34.133333 0 0 1-28.194133 39.185066C337.749333 256.887467 238.933333 372.224 238.933333 508.3136 238.933333 661.230933 362.632533 785.066667 515.208533 785.066667a276.48 276.48 0 0 0 273.442134-236.885334 34.133333 34.133333 0 1 1 67.584 9.693867A344.746667 344.746667 0 0 1 515.242667 853.333333C324.881067 853.333333 170.666667 698.88 170.666667 508.347733c0-169.710933 123.1872-313.480533 288.768-340.48a34.133333 34.133333 0 0 1 39.185066 28.194134z m175.035734 13.7216l4.164266 1.024 130.286934 40.789333 3.754666 1.536 3.072 1.706667 3.208534 2.2528 3.072 2.798933 3.003733 3.447467 2.082133 3.140266 2.048 4.096 1.7408 5.256534 0.682667 3.7888 0.273067 4.949333-0.170667 2.7648-0.3072 2.218667-0.648533 2.9696-33.109334 126.088533-1.365333 4.096a34.133333 34.133333 0 0 1-65.4336-17.544533l0.785067-3.8912 12.9024-49.288534c-91.579733 12.629333-195.925333 107.758933-195.925334 205.482667a34.133333 34.133333 0 1 1-68.266666 0c0-123.6992 110.933333-236.100267 224.733866-266.922667l-46.7968-14.574933a34.133333 34.133333 0 0 1 16.213334-66.218667z" p-id="2930"></path></svg>